<mxfile host="app.diagrams.net" modified="2022-04-03T18:55:59.633Z" agent="5.0 (Windows NT 10.0; Win64; x64) AppleWebKit/537.36 (KHTML, like Gecko) Chrome/99.0.4844.84 Safari/537.36" etag="U41YyaaHCtmFGyAqiyND" version="17.4.0" type="github">
  <diagram id="WKx3-mMpE8VJ6pZ8A8f2" name="Page-1">
    <mxGraphModel dx="677" dy="374" grid="1" gridSize="10" guides="1" tooltips="1" connect="1" arrows="1" fold="1" page="1" pageScale="1" pageWidth="827" pageHeight="1169" math="0" shadow="0">
      <root>
        <mxCell id="0" />
        <mxCell id="1" parent="0" />
        <mxCell id="2iHKMLVQ9v02vyDDEUzA-4" value="" style="rounded=0;whiteSpace=wrap;html=1;strokeWidth=2;" vertex="1" parent="1">
          <mxGeometry x="160" y="310" width="60" height="60" as="geometry" />
        </mxCell>
        <mxCell id="2iHKMLVQ9v02vyDDEUzA-5" value="" style="endArrow=classic;html=1;rounded=0;entryX=1;entryY=0.5;entryDx=0;entryDy=0;dashed=1;" edge="1" parent="1" target="2iHKMLVQ9v02vyDDEUzA-4">
          <mxGeometry width="50" height="50" relative="1" as="geometry">
            <mxPoint x="300" y="340" as="sourcePoint" />
            <mxPoint x="440" y="210" as="targetPoint" />
          </mxGeometry>
        </mxCell>
        <mxCell id="2iHKMLVQ9v02vyDDEUzA-6" value="" style="rhombus;whiteSpace=wrap;html=1;strokeWidth=2;" vertex="1" parent="1">
          <mxGeometry x="300" y="315" width="50" height="50" as="geometry" />
        </mxCell>
        <mxCell id="2iHKMLVQ9v02vyDDEUzA-7" value="&lt;b&gt;АС&lt;/b&gt;" style="text;html=1;align=center;verticalAlign=middle;resizable=0;points=[];autosize=1;strokeColor=none;fillColor=none;strokeWidth=1;" vertex="1" parent="1">
          <mxGeometry x="310" y="330" width="30" height="20" as="geometry" />
        </mxCell>
        <mxCell id="2iHKMLVQ9v02vyDDEUzA-8" value="" style="endArrow=classic;html=1;rounded=0;entryX=0.5;entryY=0;entryDx=0;entryDy=0;dashed=1;" edge="1" parent="1" target="2iHKMLVQ9v02vyDDEUzA-6">
          <mxGeometry width="50" height="50" relative="1" as="geometry">
            <mxPoint x="120" y="340" as="sourcePoint" />
            <mxPoint x="200" y="250" as="targetPoint" />
            <Array as="points">
              <mxPoint x="120" y="260" />
              <mxPoint x="325" y="260" />
            </Array>
          </mxGeometry>
        </mxCell>
        <mxCell id="2iHKMLVQ9v02vyDDEUzA-9" value="" style="endArrow=classic;html=1;rounded=0;entryX=0;entryY=0.5;entryDx=0;entryDy=0;" edge="1" parent="1" target="2iHKMLVQ9v02vyDDEUzA-4">
          <mxGeometry width="50" height="50" relative="1" as="geometry">
            <mxPoint x="120" y="410" as="sourcePoint" />
            <mxPoint x="140" y="380" as="targetPoint" />
            <Array as="points">
              <mxPoint x="120" y="340" />
            </Array>
          </mxGeometry>
        </mxCell>
        <mxCell id="2iHKMLVQ9v02vyDDEUzA-10" value="" style="ellipse;whiteSpace=wrap;html=1;aspect=fixed;strokeColor=default;strokeWidth=2;" vertex="1" parent="1">
          <mxGeometry x="90" y="410" width="60" height="60" as="geometry" />
        </mxCell>
        <mxCell id="2iHKMLVQ9v02vyDDEUzA-11" value="" style="ellipse;whiteSpace=wrap;html=1;aspect=fixed;strokeColor=default;strokeWidth=2;" vertex="1" parent="1">
          <mxGeometry x="220" y="410" width="60" height="60" as="geometry" />
        </mxCell>
        <mxCell id="2iHKMLVQ9v02vyDDEUzA-12" value="" style="ellipse;whiteSpace=wrap;html=1;aspect=fixed;strokeColor=default;strokeWidth=2;" vertex="1" parent="1">
          <mxGeometry x="340" y="410" width="60" height="60" as="geometry" />
        </mxCell>
        <mxCell id="2iHKMLVQ9v02vyDDEUzA-13" value="Вед" style="text;html=1;align=center;verticalAlign=middle;resizable=0;points=[];autosize=1;strokeColor=none;fillColor=none;strokeWidth=1;fontSize=12;fontStyle=1" vertex="1" parent="1">
          <mxGeometry x="180" y="350" width="40" height="20" as="geometry" />
        </mxCell>
        <mxCell id="2iHKMLVQ9v02vyDDEUzA-14" value="" style="ellipse;whiteSpace=wrap;html=1;aspect=fixed;fontSize=12;strokeColor=default;strokeWidth=0.5;" vertex="1" parent="1">
          <mxGeometry x="180" y="310" width="23" height="23" as="geometry" />
        </mxCell>
        <mxCell id="2iHKMLVQ9v02vyDDEUzA-15" value="" style="ellipse;whiteSpace=wrap;html=1;aspect=fixed;fontSize=12;strokeColor=default;strokeWidth=0.5;" vertex="1" parent="1">
          <mxGeometry x="160" y="330" width="23" height="23" as="geometry" />
        </mxCell>
        <mxCell id="2iHKMLVQ9v02vyDDEUzA-16" value="" style="endArrow=classic;html=1;rounded=0;fontSize=12;exitX=1;exitY=0.517;exitDx=0;exitDy=0;exitPerimeter=0;entryX=0.5;entryY=0;entryDx=0;entryDy=0;" edge="1" parent="1" source="2iHKMLVQ9v02vyDDEUzA-13" target="2iHKMLVQ9v02vyDDEUzA-11">
          <mxGeometry width="50" height="50" relative="1" as="geometry">
            <mxPoint x="240" y="430" as="sourcePoint" />
            <mxPoint x="290" y="380" as="targetPoint" />
            <Array as="points">
              <mxPoint x="250" y="360" />
            </Array>
          </mxGeometry>
        </mxCell>
      </root>
    </mxGraphModel>
  </diagram>
</mxfile>
